<svg xmlns="http://www.w3.org/2000/svg" viewBox="0 0 818.1 252.5" enable-background="new 0 0 818.1 252.5" xmlns:xlink="http://www.w3.org/1999/xlink"><defs><linearGradient id="5" gradientUnits="userSpaceOnUse" y1="97.3" x2="0" y2="132.96" xlink:href="#4"/><linearGradient id="4" gradientUnits="userSpaceOnUse" y1="97.29" x2="0" y2="132.96"><stop stop-color="#eeebe9"/><stop stop-color="#e7e3e0"/><stop offset=".036" stop-color="#d8d6d4"/><stop offset=".104" stop-color="#b3b4b4"/><stop offset=".197" stop-color="#797f80"/><stop offset=".264" stop-color="#4c5354"/><stop offset=".29" stop-color="#5c6365"/><stop offset=".39" stop-color="#979d9f"/><stop offset=".473" stop-color="#c3c6c8"/><stop offset=".537" stop-color="#dfe0e1"/><stop offset=".573" stop-color="#e9e9ea"/><stop offset=".631" stop-color="#e0e1e2"/><stop offset=".729" stop-color="#c8cacd"/><stop offset=".855" stop-color="#a1a5aa"/><stop offset=".876" stop-color="#999ea3"/><stop offset="1" stop-color="#dadada"/><stop offset="1" stop-color="#b2b2b2"/></linearGradient><linearGradient id="3" gradientUnits="userSpaceOnUse" x1="364.11" y1="8.912" x2="476.97" y2="181.9" xlink:href="#2"/><linearGradient id="0" gradientUnits="userSpaceOnUse" y1=".525" x2="0" y2="180.29"><stop stop-color="#eeebe9"/><stop stop-color="#e5e3e2"/><stop stop-color="#dadada"/><stop offset=".042" stop-color="#eaeaea"/><stop offset=".089" stop-color="#f6f6f6"/><stop offset=".142" stop-color="#fdfdfd"/><stop offset=".209" stop-color="#fff"/><stop offset=".236" stop-color="#f5f5f5"/><stop offset=".281" stop-color="#dbdbdb"/><stop offset=".313" stop-color="#c4c4c4"/><stop offset=".348" stop-color="#c7c7c7"/><stop offset=".369" stop-color="#cfcfcf"/><stop offset=".383" stop-color="#dadada"/><stop offset=".398" stop-color="#d0d0d0"/><stop offset=".422" stop-color="#b6b6b6"/><stop offset=".453" stop-color="#8c8c8c"/><stop offset=".458" stop-color="#858585"/><stop offset=".489" stop-color="#8e8e8e"/><stop offset=".512" stop-color="#999"/><stop offset=".518" stop-color="#868686"/><stop offset=".531" stop-color="#5e5e5e"/><stop offset=".544" stop-color="#3c3c3c"/><stop offset=".558" stop-color="#212121"/><stop offset=".572" stop-color="#0f0f0f"/><stop offset=".586" stop-color="#040404"/><stop offset=".602"/><stop offset=".632" stop-color="#060606"/><stop offset=".673" stop-color="#171717"/><stop offset=".72" stop-color="#333"/><stop offset=".771" stop-color="#5b5b5b"/><stop offset=".825" stop-color="#8d8d8d"/><stop offset=".882" stop-color="#c9c9c9"/><stop offset=".896" stop-color="#d9d9d9"/><stop offset=".902" stop-color="#dedede"/><stop offset=".931" stop-color="#f0f0f0"/><stop offset=".962" stop-color="#fbfbfb"/><stop offset=".995" stop-color="#fff"/></linearGradient><linearGradient id="2" gradientUnits="userSpaceOnUse" x1="364.58" y1="7.884" x2="480.95" y2="186.25"><stop stop-color="#47c1f0"/><stop offset=".338" stop-color="#1d71b8"/><stop offset="1" stop-color="#2d2474"/></linearGradient><radialGradient id="6" cx="496.82" cy="142.46" r="268.43" gradientTransform="matrix(1.0251 0 0 .9459-7.762 48.881)" gradientUnits="userSpaceOnUse"><stop stop-color="#1d71b8"/><stop offset=".01" stop-color="#1d6fb5"/><stop offset=".128" stop-color="#145994"/><stop offset=".25" stop-color="#0a4576"/><stop offset=".373" stop-color="#03345c"/><stop offset=".495" stop-color="#002344"/><stop offset=".619" stop-color="#001430"/><stop offset=".743" stop-color="#00071f"/><stop offset=".869" stop-color="#000109"/><stop offset="1"/></radialGradient><radialGradient id="1" cx="272.05" cy="-31.495" r="194.32" gradientTransform="matrix(1.0205 0 0 .9545-6.799 40.486)" gradientUnits="userSpaceOnUse"><stop stop-color="#1d71b8"/><stop offset=".881"/></radialGradient></defs><ellipse cx="404.5" cy="88.3" rx="212.6" ry="87.8" fill="url(#0)" stroke="#808080" stroke-width="1.05"/><g fill="#333"><path d="m40.4 220.5c-3.7-2.4-8.7-3.7-13.6-3.7-11.6 0-20.4 7-20.4 15.4 0 8.2 8.7 15.3 20.2 15.3 5.1 0 9.9-1.4 13.7-3.9v5.5c-4 1.7-9 2.6-13.5 2.6-14.7 0-26.9-8.5-26.9-19.4 0-11.1 12.2-19.8 27.4-19.8 4.5 0 9.1.8 13 2.5v5.5z"/><path d="m56.7 241.5l-5.9 9.4h-6.9l24.6-39.2 24.6 39.2h-6.9l-5.9-9.4h-23.6m11.9-19.5l-9.2 15.2h18.3l-9.1-15.2"/><path d="m130.9 250.9h-7.8l-15.2-15.9h-2.7v15.9h-6.4v-37.6h7.8c4.6 0 9.5.1 13.6 1.7 4.3 1.8 6.8 5.4 6.8 9 0 5.4-4.9 9.9-12.4 10.5l16.3 16.4m-25.6-19.8h2c6.6 0 13.7-.9 13.7-6.9 0-5.9-7.7-6.7-14-6.7h-1.7v13.6"/><path d="m169.9 226.1h-.1l-6 24.8h-6.6l10.5-39.2 17.7 29.6 17.7-29.6 10.5 39.2h-6.6l-6-24.8h-.1l-15.4 25.6-15.6-25.6"/><path d="m229.4 241.5l-5.9 9.4h-6.9l24.6-39.2 24.6 39.2h-6.9l-5.9-9.4h-23.6m11.8-19.5l-9.2 15.2h18.3l-9.1-15.2"/><path d="m304.9 250.9h-7.8l-15.1-15.9h-2.7v15.9h-6.4v-37.6h7.8c4.6 0 9.5.1 13.6 1.7 4.3 1.8 6.8 5.4 6.8 9 0 5.4-4.9 9.9-12.4 10.5l16.2 16.4m-25.6-19.8h2.1c6.6 0 13.7-.9 13.7-6.9 0-5.9-7.7-6.7-14-6.7h-1.7v13.6z"/><path d="m339.6 213.3h8.4l-23.2 16.9 23.6 20.7h-8.7l-19.4-17.5-2.6 1.8v15.7h-6.4v-37.6h6.4v16.3l21.9-16.3"/><path d="m355.1 213.3h27.7v4.3h-21.3v10.5h20.6v4.3h-20.6v14.2h21.3v4.3h-27.7v-37.6"/><path d="m407.3 250.9h-6.4v-33.3h-12.2v-4.3h30.9v4.3h-12.2v33.3z"/><path d="m432.2 250.9h-6.4v-37.6h6.4v37.6"/><path d="m442.6 211.6l38.7 29.6v-27.8h6.4v39.1l-38.7-29.6v28h-6.4v-39.3"/><path d="m546.6 232v1.5c0 10.3-10 18.3-24.4 18.3-14.4 0-26-9.1-26-19.5 0-10.8 11.9-19.7 26.7-19.7 8 0 15.9 2.6 21 7.3l-4.5 3.1c-3.7-3.7-9.9-6.1-16.2-6.1-11.6 0-20.6 6.8-20.6 15.3 0 7.9 8.9 15.4 20 15.4 8 0 16.6-5 16.9-11.2h-13.3v-4.4h20.4"/><path d="m601 220.5c-1.9-2.3-4.4-3.5-8.3-3.5-4.1 0-8.6 2-8.6 5.3 0 2.9 4 4.5 7.2 5.4l3.7 1c7.3 2.1 12.8 5 12.8 11.3 0 6.8-7.2 11.7-16.5 11.7-8.3 0-14.8-4.5-15.9-10.5l6.5-1c-.1 4.1 4.4 7.1 10 7.1 5.5 0 9.5-3.4 9.5-7.3 0-4-4.4-5.8-8.9-7.1l-3.6-1.1c-5.9-1.8-11.2-4.3-11.2-9.5 0-6.1 7.4-9.7 15.2-9.7 5.7 0 10.5 2 13.3 5.7l-5.2 2.2"/><path d="m610.9 213.3h7.4l12.6 16.1 12.6-16.1h7.4l-16.8 21.2v16.4h-6.4v-16.4l-16.8-21.2"/><path d="m678.3 220.5c-1.9-2.3-4.4-3.5-8.3-3.5-4.1 0-8.6 2-8.6 5.3 0 2.9 4 4.5 7.2 5.4l3.7 1c7.3 2.1 12.8 5 12.8 11.3 0 6.8-7.2 11.7-16.5 11.7-8.3 0-14.8-4.5-15.9-10.5l6.5-1c-.1 4.1 4.4 7.1 10 7.1 5.5 0 9.5-3.4 9.5-7.3 0-4-4.4-5.8-8.9-7.1l-3.6-1.1c-5.9-1.8-11.2-4.3-11.2-9.5 0-6.1 7.4-9.7 15.2-9.7 5.7 0 10.5 2 13.3 5.7l-5.2 2.2"/><path d="m708.7 250.9h-6.4v-33.3h-12.3v-4.3h30.9v4.3h-12.2v33.3"/><path d="m728.7 213.3h27.7v4.3h-21.3v10.5h20.6v4.3h-20.6v14.2h21.3v4.3h-27.7v-37.6"/><path d="m774.4 226.1h-.1l-6 24.8h-6.6l10.5-39.2 17.7 29.6 17.7-29.6 10.5 39.2h-6.6l-6-24.8h-.1l-15.4 25.6-15.6-25.6"/></g><path d="m404.2 11.2c-110.8 0-200.7 34.1-200.7 76.3 0 42.1 89.8 76.3 200.7 76.3 110.9 0 200.7-34.1 200.7-76.3 0-42.2-89.9-76.3-200.7-76.3z" fill="url(#6)" stroke="#4d4d4d" stroke-width=".696"/><path d="m584.8 55.2c-31.8-25.9-100.7-43.9-180.9-43.9-110.2 0-199.6 34-199.6 76 0 2 .4 4 .8 6 72 8.3 191.7 12.3 379.7-38.1" fill="url(#1)"/><g fill-rule="evenodd"><path d="m265.2 68.5c0 0 0 0 0 0 2.2-3.9 29.1-16.2 66.4-26.4 38-10.4 66.1-12 91-5.1 13.7 3.8 14.4 3.4 29.8 11.6 4.4 2.3 8.2 4.4 14.4 6.1 8.9 2.5 25.4 4.9 41.3 7.2 10.3 1.5 20.1 2.9 27.1 4.3 15.2 2.9 26.4 11.5 28.7 13.4.3.2 3.1 1.6 3.8 4.7.2.7-.1 3.8-9.6 12.2-4.6 4.1-6.6 16.9-6.4 17.4 0 0 7.4-11 9.9-13.2 6.2-5.5 12.5-12.4 11.9-18.6-.5-5.2-18.8-18.5-36.3-21.9-7.2-1.4-17-2.8-27.3-4.3-15.8-2.3-32-4.7-40.6-7-5.7-1.6-9.1-3.4-13.4-5.7-6.1-3.2-13.6-7.2-30.8-12-26-7.2-55-5.6-94.1 5.1-18.3 5-64.8 19.5-69.2 29.8-.4 1-8.1 15.9-8.9 17.2-.2 0 11.6-13.2 12.3-14.8" fill="url(#2)"/><path d="m452.3 60.8c0 0-56.3-3.1-62.9-3.7-6.6-.6-45.4.3-41.3-6 4-6.3 20.4-10.8 24.5-11.7.9-.6-27.3 4-31.9 10.8-4 6 4.1 9.7 10.2 10.3 30.5 2.9 101.4.3 101.4.3" fill="url(#3)"/></g><path d="m337.7 86.9c-8-3.2-19-4.9-29.5-4.9-25 0-44.1 9.3-44.1 20.2 0 10.8 19 20.1 43.8 20.1 11 0 21.5-1.8 29.8-5.1v7.3c-8.6 2.2-19.6 3.5-29.3 3.5-31.8 0-58.2-11.2-58.2-25.6 0-14.7 26.5-26.1 59.4-26.1 9.8 0 19.7 1.1 28.1 3.4v7.2" fill="url(#4)"/><path d="m373.3 94.3h-.3l-13 32.7h-14.4l22.8-51.7 38.4 39 38.4-39 22.8 51.7h-14.4l-13-32.7h-.3l-33.5 33.8-33.5-33.8" fill="url(#5)"/><path d="m530 86.8c-4.2-3.1-9.5-4.7-17.9-4.7-8.9 0-18.7 2.7-18.7 7 0 3.9 8.6 5.9 15.6 7.1l8 1.4c15.9 2.8 27.7 6.6 27.7 14.9 0 9-15.7 15.4-35.7 15.4-18.1 0-32.1-5.9-34.5-13.9l14.1-1.3c-.1 5.5 9.6 9.4 21.6 9.4 12 0 20.6-4.5 20.6-9.7 0-5.3-9.6-7.6-19.3-9.4l-7.7-1.4c-12.7-2.4-24.3-5.7-24.3-12.6 0-8 16-12.8 32.9-12.8 12.4 0 22.7 2.7 28.7 7.5l-11.1 3.1" fill="url(#4)"/></svg>